HIERARCHY
ROOT hip
{
	OFFSET 0.000000 0.000000 0.000000 
	CHANNELS 6 Xposition Yposition Zposition Xrotation Zrotation Yrotation
	JOINT abdomen
	{
		OFFSET 0.000000 3.402643 0.000000 
		CHANNELS 3 Xrotation Zrotation Yrotation
		JOINT chest
		{
			OFFSET 0.000000 8.438565 -0.680529 
			CHANNELS 3 Xrotation Zrotation Yrotation
			JOINT neck
			{
				OFFSET 0.000000 10.207942 -0.272212 
				CHANNELS 3 Xrotation Zrotation Yrotation
				JOINT head
				{
					OFFSET 0.000000 3.130431 0.000000 
					CHANNELS 3 Xrotation Zrotation Yrotation
					End Site
					{
						OFFSET 0.000000 3.130435 0.000000 
					}
				}
			}
			JOINT lCollar
			{
				OFFSET 3.470700 6.669187 -0.816635 
				CHANNELS 3 Yrotation Zrotation Xrotation
				JOINT lShldr
				{
					OFFSET 3.198488 0.000000 0.000000 
					CHANNELS 3 Zrotation Yrotation Xrotation
					JOINT lForeArm
					{
						OFFSET 10.139888 0.000000 0.000000 
						CHANNELS 3 Yrotation Zrotation Xrotation
						JOINT lHand
						{
							OFFSET 8.370511 0.000000 0.000000 
							CHANNELS 3 Zrotation Yrotation Xrotation
							End Site
							{
								OFFSET 4.083176 0.000000 0.000000 
							}
						}
					}
				}
			}
			JOINT rCollar
			{
				OFFSET -3.470700 6.669187 -0.816635 
				CHANNELS 3 Yrotation Zrotation Xrotation
				JOINT rShldr
				{
					OFFSET -3.198488 0.000000 0.000000 
					CHANNELS 3 Zrotation Yrotation Xrotation
					JOINT rForeArm
					{
						OFFSET -10.139888 0.000000 0.000000 
						CHANNELS 3 Yrotation Zrotation Xrotation
						JOINT rHand
						{
							OFFSET -8.370511 0.000000 0.000000 
							CHANNELS 3 Zrotation Yrotation Xrotation
							End Site
							{
								OFFSET -4.083176 0.000000 0.000000 
							}
						}
					}
				}
			}
		}
	}
	JOINT lThigh
	{
		OFFSET 5.308129 -1.633274 1.361059 
		CHANNELS 3 Xrotation Zrotation Yrotation
		JOINT lShin
		{
			OFFSET -2.041588 -20.007561 0.000000 
			CHANNELS 3 Xrotation Zrotation Yrotation
			JOINT lFoot
			{
				OFFSET 0.000000 -19.190928 -1.224953 
				CHANNELS 3 Xrotation Yrotation Zrotation
				End Site
				{
					OFFSET 0.000000 -2.449906 4.627600 
				}
			}
		}
	}
	JOINT rThigh
	{
		OFFSET -5.308129 -1.633274 1.361059 
		CHANNELS 3 Xrotation Zrotation Yrotation
		JOINT rShin
		{
			OFFSET 2.041588 -20.007561 0.000000 
			CHANNELS 3 Xrotation Zrotation Yrotation
			JOINT rFoot
			{
				OFFSET 0.000000 -19.190928 -1.224953 
				CHANNELS 3 Xrotation Yrotation Zrotation
				End Site
				{
					OFFSET 0.000000 -2.449906 4.627600 
				}
			}
		}
	}
}
MOTION
Frames: 11
Frame Time: 0.016667
-0.295999 54.226490 -1.250570 -4.633983 0.058406 4.589851 26.308132 1.875946 0.196103 -2.475636 -0.234325 -1.816436 -11.469575 -1.892516 0.286284 11.467694 4.569330 -42.843899 -7.248085 -2.733263 -0.138894 -55.482330 16.738476 -13.471983 -9.632194 -5.000000 45.000000 -34.506592 5.744394 15.701746 9.509588 4.282308 -0.229229 68.684937 -21.289019 -26.798555 7.019971 5.000000 45.000000 16.160940 -13.606003 20.650173 12.703233 13.270132 8.533680 -2.148422 -5.470729 -0.039838 -3.382838 -0.860859 -10.753336 17.118956 -2.890786 -14.285076 -2.534491 3.129251 -0.075486 -1.164041 -9.951205 7.118082 
-0.295931 54.223835 -1.251897 -4.612875 0.077873 4.599618 26.327084 1.855165 0.166591 -2.466071 -0.224562 -1.816435 -11.498775 -1.873205 0.283364 11.476686 4.564325 -42.813995 -7.209022 -2.733264 -0.138894 -55.487865 16.706022 -13.445664 -9.646991 -5.000000 45.000000 -34.415569 5.747117 15.715465 9.490095 4.292064 -0.229734 68.654556 -21.255161 -26.775093 7.019971 5.000000 45.000000 16.215740 -13.661709 20.613850 12.682606 13.250503 8.419687 -2.159688 -5.455167 -0.019140 -3.383565 -0.868062 -10.766849 17.108591 -2.890778 -14.275549 -2.551355 3.116000 -0.066433 -1.139297 -10.009065 7.118859 
-0.293473 54.220371 -1.253106 -4.599938 0.116807 4.619151 26.326641 1.819067 0.151898 -2.436330 -0.244088 -1.806672 -11.508352 -1.834582 0.277523 11.453606 4.578652 -42.815548 -7.209408 -2.702780 -0.147061 -55.488548 16.670822 -13.448873 -9.642059 -5.000000 45.000000 -34.254295 5.728349 15.820880 9.470684 4.321325 -0.231247 68.645012 -21.237808 -26.769598 7.031672 5.000000 45.000000 16.275015 -13.650414 20.600981 12.651140 13.200082 8.349529 -2.168526 -5.430659 -0.019203 -3.375394 -0.765344 -10.734920 17.112511 -2.920409 -14.301980 -2.572529 3.098548 -0.067020 -1.163835 -10.013972 7.114536 
-0.289425 54.216381 -1.254237 -4.585363 0.175203 4.648475 26.335949 1.767576 0.151813 -2.396407 -0.283141 -1.796909 -11.498400 -1.795960 0.271683 11.419975 4.592257 -42.826042 -7.219097 -2.673521 -0.145551 -55.479069 16.624311 -13.443974 -9.617394 -5.000000 45.000000 -34.035675 5.676493 16.012419 9.451313 4.360339 -0.233265 68.638268 -21.214947 -26.776501 7.044397 5.000000 45.000000 16.323153 -13.609237 20.609663 12.644183 13.153617 8.320173 -2.180777 -5.446808 -0.017793 -3.390333 -0.781167 -10.763177 17.134293 -2.959527 -14.339685 -2.581379 3.077961 -0.076580 -1.220706 -9.978701 7.134939 
-0.286913 54.212124 -1.256512 -4.570770 0.233598 4.668010 26.335629 1.715644 0.151556 -2.366443 -0.312430 -1.787145 -11.488454 -1.757337 0.265842 11.393784 4.599419 -42.826817 -7.228812 -2.654014 -0.144544 -55.468197 16.572264 -13.428374 -9.588372 -5.000000 45.000000 -33.826427 5.622925 16.182182 9.421397 4.391200 -0.225173 68.621307 -21.205566 -26.776400 7.056083 5.000000 45.000000 16.361881 -13.564637 20.620699 12.594029 13.093189 8.257089 -2.167157 -5.421015 -0.030230 -3.386516 -0.788081 -10.786830 17.131073 -3.017863 -14.372783 -2.591403 3.068550 -0.096372 -1.256230 -9.872058 7.186175 
-0.290566 54.206802 -1.263358 -4.529279 0.262794 4.677819 26.345312 1.665361 0.141995 -2.357090 -0.292903 -1.806675 -11.507940 -1.747682 0.264382 11.353198 4.589420 -42.767010 -7.189852 -2.693031 -0.146558 -55.422081 16.504837 -13.375531 -9.545756 -5.000000 45.000000 -33.630081 5.506995 16.309479 9.431280 4.420457 -0.226685 68.600601 -21.189577 -26.801088 7.057987 5.000000 45.000000 16.318886 -13.518602 20.609253 12.497290 13.074459 8.179055 -2.079733 -5.401780 -0.009149 -3.482111 -0.780008 -10.798202 17.106979 -3.037622 -14.407863 -2.531813 3.028369 -0.110483 -1.343019 -9.710721 7.296780 
-0.294215 54.201481 -1.270209 -4.487727 0.291985 4.697353 26.364872 1.611633 0.141538 -2.357248 -0.283139 -1.826205 -11.527428 -1.738026 0.262921 11.328998 4.572215 -42.706425 -7.150917 -2.741801 -0.149076 -55.374619 16.431787 -13.312098 -9.503197 -5.000000 45.000000 -33.443672 5.393016 16.435236 9.431396 4.449715 -0.228198 68.577980 -21.170031 -26.816891 7.067636 5.000000 45.000000 16.286345 -13.470180 20.610214 12.400538 13.055690 8.091092 -2.012805 -5.415609 0.015709 -3.498117 -0.703860 -10.746484 17.058409 -3.037413 -14.459334 -2.474557 2.961695 -0.104077 -1.423169 -9.583414 7.416239 
-0.294411 54.190838 -1.282202 -4.404004 0.360115 4.697419 26.344980 1.510182 0.132728 -2.328206 -0.273376 -1.826205 -11.546870 -1.718715 0.260001 11.289934 4.572216 -42.706425 -7.150476 -2.752769 -0.139901 -55.361992 16.292292 -13.228575 -9.391703 -5.000000 45.000000 -33.530777 5.371985 15.848598 9.373718 4.487134 -0.239821 68.529778 -21.135876 -26.790033 7.094700 5.000000 45.000000 16.220743 -13.464099 20.555765 12.232903 12.985801 7.642606 -1.915447 -5.367822 0.005714 -3.607478 -0.364272 -10.748249 16.980618 -3.105882 -14.467558 -2.476187 2.934337 -0.112783 -1.479803 -9.592043 7.419651 
-0.293735 54.178852 -1.295487 -4.319556 0.437983 4.687661 26.324564 1.395054 0.107768 -2.308768 -0.273378 -1.806674 -11.566272 -1.689748 0.255620 11.248536 4.570065 -42.736328 -7.160266 -2.762522 -0.140405 -55.348057 16.147221 -13.134456 -9.266166 -5.000000 45.000000 -33.687634 5.364661 15.093327 9.305567 4.535909 -0.242343 68.477684 -21.094496 -26.745462 7.126623 5.000000 45.000000 16.150782 -13.472649 20.490097 12.028930 12.909142 7.091469 -1.817237 -5.288309 -0.005269 -3.713568 0.018482 -10.763134 16.910719 -3.183958 -14.497436 -2.494814 2.933318 -0.074901 -1.502936 -9.598712 7.395131 
-0.290457 54.164219 -1.307576 -4.242696 0.545069 4.658457 26.304510 1.244483 0.089839 -2.279564 -0.273380 -1.787143 -11.605486 -1.659320 0.260891 11.213370 4.577955 -42.726624 -7.160786 -2.780809 -0.151090 -55.336349 15.986066 -13.054044 -9.117589 -5.000000 45.000000 -33.657158 5.392183 14.674068 9.247225 4.594434 -0.245369 68.400352 -21.060753 -26.702856 7.189756 5.000000 45.000000 16.109495 -13.505871 20.451872 11.835031 12.773497 6.292004 -1.708794 -5.181072 -0.038246 -3.882819 0.744718 -10.721350 16.863775 -3.281363 -14.480914 -2.552169 2.922059 -0.087932 -1.588108 -9.668680 7.319598 
-0.283274 54.145596 -1.317863 -4.183460 0.681392 4.599980 26.323252 1.057022 0.057249 -2.240641 -0.273383 -1.748080 -11.663948 -1.630353 0.256510 11.213754 4.595902 -42.678860 -7.160838 -2.800314 -0.152097 -55.317413 15.838202 -12.986880 -8.952007 -5.000000 45.000000 -33.341469 5.474645 14.784594 9.218355 4.691964 -0.250409 68.287560 -21.048088 -26.655256 7.290368 5.000000 45.000000 16.105232 -13.572915 20.428576 11.587737 12.595273 5.086605 -1.544717 -4.966916 -0.057958 -4.112346 1.767325 -10.703048 16.841961 -3.427619 -14.424647 -2.672183 2.933777 -0.076367 -1.730562 -9.770171 7.196033 
